<?xml version="1.0" encoding="iso-8859-1"?>
<!-- Generator: Adobe Illustrator 19.0.0, SVG Export Plug-In . SVG Version: 6.00 Build 0)  -->
<svg version="1.1" id="Capa_1" xmlns="http://www.w3.org/2000/svg" xmlns:xlink="http://www.w3.org/1999/xlink" x="0px" y="0px"
	 viewBox="0 0 512 512" style="enable-background:new 0 0 512 512;" xml:space="preserve">
<circle style="fill:#EA0016;" cx="256" cy="256" r="256"/>
<path style="fill:#C30010;" d="M260.137,511.948c136.55-2.166,247.12-111.229,251.697-247.181l-125.59-127.761l-15.864,17.93
	L269.5,51.667l-2.768,45.047l-84.97,12.175L97.75,205.972l1.939,57.772L51.667,269.5l98.681,101.07l-22.781,6.376L260.137,511.948z"
	/>
<circle style="fill:#FFDE46;" cx="256" cy="256" r="115"/>
<path style="fill:#FFB64C;" d="M256,141c-0.143,0-0.285,0.005-0.429,0.005v229.989c0.143,0,0.285,0.005,0.429,0.005
	c63.513,0,115-51.487,115-115S319.513,141,256,141z"/>
<circle style="fill:#FFF04A;" cx="256" cy="256" r="85.03"/>
<path style="fill:#FFDE46;" d="M256,170.968c-0.144,0-0.285,0.01-0.429,0.011v170.042c0.144,0,0.285,0.011,0.429,0.011
	c46.962,0,85.032-38.07,85.032-85.032S302.962,170.968,256,170.968z"/>
<path style="fill:#E89F00;" d="M298.246,277.847c0-20.107-16.358-36.465-36.465-36.465h-11.562c-3.985,0-7.228-3.243-7.228-7.228
	s3.243-7.228,7.228-7.228h43.154v-29.237h-22.755v-12.67h-29.237v13.759c-15.85,3.961-27.627,18.317-27.627,35.376
	c0,20.107,16.358,36.465,36.465,36.465h11.562c3.985,0,7.228,3.243,7.228,7.228s-3.243,7.228-7.228,7.228h-43.154v29.237h22.755
	v12.669h29.237v-13.758C286.468,309.262,298.246,294.906,298.246,277.847z"/>
<g>
	<polygon style="fill:#E0911B;" points="293.373,226.925 293.373,197.688 270.619,197.688 270.619,185.018 255.571,185.018 
		255.571,226.925 	"/>
	<path style="fill:#E0911B;" d="M261.781,241.381h-6.209v29.237h6.209c3.985,0,7.228,3.243,7.228,7.228s-3.243,7.228-7.228,7.228
		h-6.209v41.907h15.047v-13.758c15.85-3.961,27.627-18.317,27.627-35.376C298.246,257.74,281.888,241.381,261.781,241.381z"/>
</g>
<path style="fill:#FFFFFF;" d="M460.334,242.5h-28.346c-6.58-86.583-75.905-155.909-162.488-162.488V51.667h-27v28.345
	C155.917,86.591,86.591,155.917,80.012,242.5H51.667v27h28.345c6.58,86.583,75.905,155.909,162.488,162.488v28.345h27v-28.345
	c86.583-6.58,155.909-75.905,162.488-162.488h28.346V242.5z M269.5,404.884v-13.217h-27v13.217
	c-71.683-6.447-128.937-63.701-135.384-135.384h13.218v-27h-13.218c6.447-71.683,63.701-128.937,135.384-135.384v13.217h27v-13.217
	c71.683,6.447,128.937,63.701,135.384,135.384h-13.217v27h13.217C398.437,341.183,341.183,398.437,269.5,404.884z"/>
<path style="fill:#F0F0F0;" d="M431.988,242.5c-6.58-86.583-75.905-155.909-162.488-162.488V51.667h-13.929v68.667H269.5v-13.217
	c71.683,6.447,128.937,63.701,135.384,135.384h-13.217v27h13.217c-6.447,71.683-63.701,128.937-135.384,135.384v-13.217h-13.929
	v68.667H269.5V431.99c86.583-6.58,155.909-75.905,162.488-162.488h28.346v-27h-28.346V242.5z"/>
<g>
</g>
<g>
</g>
<g>
</g>
<g>
</g>
<g>
</g>
<g>
</g>
<g>
</g>
<g>
</g>
<g>
</g>
<g>
</g>
<g>
</g>
<g>
</g>
<g>
</g>
<g>
</g>
<g>
</g>
</svg>
